<?xml version="1.0" encoding="utf-8"?>
<svg xmlns="http://www.w3.org/2000/svg" width="345" height="345" fill="none">
    <rect width="345" height="345" rx="75" fill="#FAFAF8"/>
    <path d="m66.31 168.777 22.1-24.557H73.187l-19.403 22.387V144.22H41.076v57.747h12.707v-19.898l3.85-4.345 18.58 24.243h15.41l-25.314-33.19ZM107.138 163.123H94.641v39.082h12.497v-39.082ZM100.889 156.013a7.08 7.08 0 0 0 7.073-7.072c0-3.898-3.175-7.072-7.073-7.072-3.897 0-7.148 3.174-7.148 7.072 0 3.897 3.208 7.072 7.148 7.072ZM135.335 162.452c-4.288 0-8.204 1.77-10.851 4.883v-3.974h-12.021v38.606h12.021v-21.202c0-4.493 2.651-7.51 6.597-7.51 3.945 0 6.144 2.527 6.144 6.596v22.116h12.021v-25.304c0-8.633-5.458-14.216-13.911-14.216v.005ZM183.237 140.27v27.208c-2.137-2.523-6.149-5.026-11.536-5.026-10.699 0-19.075 8.88-19.075 20.217 0 11.336 8.381 20.217 19.075 20.217 5.387 0 9.399-2.504 11.536-5.026v4.112h12.021V140.27h-12.021Zm-9.181 52.184c-5.406 0-9.485-4.208-9.485-9.79 0-5.582 4.079-9.79 9.485-9.79 5.407 0 9.562 4.208 9.562 9.79 0 5.582-4.112 9.79-9.562 9.79ZM225.655 163.19l-.176-.048c-.838-.228-1.699-.462-2.87-.462-4.788 0-8.295 2.751-10.17 5.554v-4.868h-12.022v38.606h12.022V183.43c0-5.335 3.431-8.647 8.952-8.647 1.518 0 2.698.176 3.95.595l.314.105V163.19ZM260.373 168.034c-3.45-3.65-8.195-5.582-13.72-5.582-10.98 0-19.913 9.066-19.913 20.217 0 11.15 8.881 20.217 20.217 20.217 7.486 0 13.868-3.446 17.523-9.457l.115-.19-8.515-5.887-.133.204c-2.489 3.86-5.092 5.435-8.99 5.435-4.393 0-7.8-2.66-8.961-6.967h27.945l.015-.224c.414-7.2-1.571-13.511-5.583-17.761v-.005Zm-21.968 10.29c1.375-3.746 4.535-6.059 8.324-6.059 4.849 0 7.191 3.203 7.767 6.059h-16.091ZM299.221 140.27v27.208c-2.137-2.523-6.149-5.026-11.536-5.026-10.699 0-19.075 8.88-19.075 20.217 0 11.336 8.381 20.217 19.075 20.217 5.387 0 9.399-2.504 11.536-5.026v4.112h12.022V140.27h-12.022Zm-9.18 52.184c-5.407 0-9.485-4.208-9.485-9.79 0-5.582 4.078-9.79 9.485-9.79 5.406 0 9.561 4.208 9.561 9.79 0 5.582-4.112 9.79-9.561 9.79Z" fill="#141414"/>
</svg>