<svg xmlns="http://www.w3.org/2000/svg" fill="none" aria-label="logo" style="fill:currentcolor" viewBox="0 0 103 14"><path d="M0 14h2.95996v-3.9785l1.45606-1.77736L8.25098 14H11.792L6.53516 6.26855 11.7305 0H8.18262L3.14453 6.17285h-.18457V0H0v14ZM19.4082 0h-2.96v14h2.96V0ZM36.7297 0h-2.9463v8.80469h-.123L27.6174 0h-2.5977v14h2.96V5.18848h.1025L34.1731 14h2.5566V0ZM47.3144 14c4.2656 0 6.8496-2.6387 6.8496-7.01367C54.164 2.625 51.58 0 47.3554 0h-5.0039v14h4.9629Zm-2.0029-2.5361V2.53613h1.8867c2.625 0 4.0127 1.33985 4.0127 4.4502 0 3.12407-1.3877 4.47757-4.0196 4.47757h-1.8798ZM59.5329 14h2.9599V9.03711h2.1602L67.3053 14h3.2676l-2.9736-5.44141c1.5928-.68359 2.4746-2.07129 2.4746-3.98535C70.0739 1.79102 68.235 0 65.0563 0h-5.5234v14Zm2.9599-7.3418V2.41992h1.9961c1.709 0 2.5362.75879 2.5362 2.15332 0 1.3877-.8272 2.08496-2.5225 2.08496h-2.0098ZM75.3419 14h9.461v-2.4404h-6.501V8.2168h5.9883V5.77637h-5.9883V2.44043h6.4736V0h-9.4336v14ZM95.268 14c4.2656 0 6.85-2.6387 6.85-7.01367C102.118 2.625 99.5336 0 95.309 0h-5.0039v14h4.9629Zm-2.003-2.5361V2.53613h1.8867c2.625 0 4.0127 1.33985 4.0127 4.4502 0 3.12407-1.3877 4.47757-4.0195 4.47757H93.265Z"/></svg>